# xmcd
#
# Track frame offsets:
# 150
# 19267
# 38393
# 56561
# 71972
# 95073
# 109515
# 123171
# 142348
# 161502
# 179744
# 195222
# 218364
# 232974
#
# Disc length: 3285 seconds
#
#
# Revision: 0
# Processed by: cddbd v1.5.2PL0 Copyright (c) Steve Scherf et al.
# Submitted via: FreeRIP 2.951 
#
DISCID=be0cd30e
DTITLE=LEVITA and LEVITINHA - VIOLA UNGIDA
DYEAR=1900
DGENRE=GOSPEL
TTITLE0=O CRENTE A ARMA EO CACHORRO
TTITLE1=VIOLA PIONEIRA
TTITLE2=MANHA SERTANEJA
TTITLE3=PARECE MAIS NAO É
TTITLE4=A MISSAO
TTITLE5=O FOGO PEGA
TTITLE6=VIOLA UNGIDA
TTITLE7=PLAY BACK
TTITLE8=PLAY BACK
TTITLE9=PLAY BACK
TTITLE10=PLAY BACK
TTITLE11=PLAY BACK
TTITLE12=PLAY BACK
TTITLE13=PLAY BACK
EXTD=
EXTT0=
EXTT1=
EXTT2=
EXTT3=
EXTT4=
EXTT5=
EXTT6=
EXTT7=
EXTT8=
EXTT9=
EXTT10=
EXTT11=
EXTT12=
EXTT13=
PLAYORDER=
